<svg id="Layer_1" height="512" viewBox="0 0 512 512" width="512" xmlns="http://www.w3.org/2000/svg" data-name="Layer 1"><path d="m398.37 46v420a30 30 0 0 1 -30 30h-224.74a30 30 0 0 1 -30-30v-420a30 30 0 0 1 30-30h224.74a30 30 0 0 1 30 30z" fill="#7b9aaa"/><circle cx="259.5" cy="461.5" fill="#91b1c4" r="15.5"/><rect fill="#5fa8ed" height="380" rx="10" width="225" x="144" y="46"/><path d="m174 416v-360a10 10 0 0 1 10-10h-30a10 10 0 0 0 -10 10v360a10 10 0 0 0 10 10h30a10 10 0 0 1 -10-10z" fill="#4f8cbf"/><g fill="#284268"><path d="m359 40h-205a16 16 0 0 0 -16 16v360a16 16 0 0 0 16 16h205a16 16 0 0 0 16-16v-360a16 16 0 0 0 -16-16zm4 376a4 4 0 0 1 -4 4h-205a4 4 0 0 1 -4-4v-360a4 4 0 0 1 4-4h205a4 4 0 0 1 4 4z"/><path d="m303.754 373.683 17.824-17.824a6 6 0 1 0 -8.484-8.485l-17.824 17.826a6 6 0 1 0 8.484 8.485z"/><path d="m337.306 351.757-37.653 37.652a6 6 0 0 0 8.485 8.486l37.652-37.652a6 6 0 0 0 -8.484-8.486z"/><path d="m168 87.606a6 6 0 0 0 -6 6v75.807a6 6 0 0 0 12 0v-75.807a6 6 0 0 0 -6-6z"/><path d="m168 62.392a6 6 0 0 0 -6 6v4.834a6 6 0 0 0 12 0v-4.834a6 6 0 0 0 -6-6z"/><path d="m369 10h-225a36 36 0 0 0 -36 36v420a36 36 0 0 0 36 36h225a36 36 0 0 0 36-36v-420a36 36 0 0 0 -36-36zm24 456a24 24 0 0 1 -24 24h-225a24 24 0 0 1 -24-24v-420a24 24 0 0 1 24-24h225a24 24 0 0 1 24 24z"/><path d="m259.5 440a21.5 21.5 0 1 0 21.5 21.5 21.525 21.525 0 0 0 -21.5-21.5zm0 31a9.5 9.5 0 1 1 9.5-9.5 9.511 9.511 0 0 1 -9.5 9.5z"/></g></svg>